<?xml version="1.0" encoding="UTF-8" standalone="no"?>
<!-- Created with Inkscape (http://www.inkscape.org/) -->

<svg
   width="46.870827mm"
   height="62.116245mm"
   viewBox="0 0 46.870827 62.116245"
   version="1.1"
   id="svg1"
   inkscape:export-filename="peregrinqueuelogo.png"
   inkscape:export-xdpi="96"
   inkscape:export-ydpi="96"
   sodipodi:docname="peregrinqueuelogo.svg"
   inkscape:version="1.4 (1:1.4+202410161351+e7c3feb100)"
   xmlns:inkscape="http://www.inkscape.org/namespaces/inkscape"
   xmlns:sodipodi="http://sodipodi.sourceforge.net/DTD/sodipodi-0.dtd"
   xmlns="http://www.w3.org/2000/svg"
   xmlns:svg="http://www.w3.org/2000/svg">
  <sodipodi:namedview
     id="namedview1"
     pagecolor="#ffffff"
     bordercolor="#000000"
     borderopacity="0.25"
     inkscape:showpageshadow="2"
     inkscape:pageopacity="0.0"
     inkscape:pagecheckerboard="0"
     inkscape:deskcolor="#d1d1d1"
     inkscape:document-units="mm"
     inkscape:zoom="2.4875403"
     inkscape:cx="-19.497172"
     inkscape:cy="120.60106"
     inkscape:window-width="3440"
     inkscape:window-height="1371"
     inkscape:window-x="292"
     inkscape:window-y="1165"
     inkscape:window-maximized="1"
     inkscape:current-layer="layer1">
    <inkscape:page
       x="0"
       y="0"
       width="46.870827"
       height="62.116245"
       id="page2"
       margin="0"
       bleed="0" />
  </sodipodi:namedview>
  <defs
     id="defs1">
    <clipPath
       clipPathUnits="userSpaceOnUse"
       id="clipPath10">
      <path
         d="M 0,1010 H 1000 V 0 H 0 Z"
         transform="translate(-602.45312,-200.85643)"
         id="path10" />
    </clipPath>
    <clipPath
       clipPathUnits="userSpaceOnUse"
       id="clipPath36">
      <path
         d="M 0,1010 H 1000 V 0 H 0 Z"
         transform="translate(-595.69432,-174.4043)"
         id="path36" />
    </clipPath>
    <clipPath
       clipPathUnits="userSpaceOnUse"
       id="clipPath48">
      <path
         d="M 0,1010 H 1000 V 0 H 0 Z"
         transform="translate(-686.83982,-251.45511)"
         id="path48" />
    </clipPath>
    <clipPath
       clipPathUnits="userSpaceOnUse"
       id="clipPath128">
      <path
         d="M 0,1010 H 1000 V 0 H 0 Z"
         transform="translate(-627.24902,-108.33298)"
         id="path128" />
    </clipPath>
    <clipPath
       clipPathUnits="userSpaceOnUse"
       id="clipPath338">
      <path
         d="M 0,1010 H 1000 V 0 H 0 Z"
         transform="translate(-709.77252,-261.87701)"
         id="path338" />
    </clipPath>
    <clipPath
       clipPathUnits="userSpaceOnUse"
       id="clipPath342">
      <path
         d="M 0,1010 H 1000 V 0 H 0 Z"
         transform="translate(-639.47462,-216.69628)"
         id="path342" />
    </clipPath>
    <clipPath
       clipPathUnits="userSpaceOnUse"
       id="clipPath344">
      <path
         d="M 0,1010 H 1000 V 0 H 0 Z"
         transform="translate(-633.53912,-201.50781)"
         id="path344" />
    </clipPath>
    <clipPath
       clipPathUnits="userSpaceOnUse"
       id="clipPath346">
      <path
         d="M 0,1010 H 1000 V 0 H 0 Z"
         transform="translate(-640.29692,-211.89163)"
         id="path346" />
    </clipPath>
    <clipPath
       clipPathUnits="userSpaceOnUse"
       id="clipPath352">
      <path
         d="M 0,1010 H 1000 V 0 H 0 Z"
         transform="translate(-651.19432,-177.20803)"
         id="path352" />
    </clipPath>
    <clipPath
       clipPathUnits="userSpaceOnUse"
       id="clipPath354">
      <path
         d="M 0,1010 H 1000 V 0 H 0 Z"
         transform="translate(-594.76762,-174.39553)"
         id="path354" />
    </clipPath>
    <clipPath
       clipPathUnits="userSpaceOnUse"
       id="clipPath360">
      <path
         d="M 0,1010 H 1000 V 0 H 0 Z"
         transform="translate(-654.00491,-138.47563)"
         id="path360" />
    </clipPath>
    <clipPath
       clipPathUnits="userSpaceOnUse"
       id="clipPath362">
      <path
         d="M 0,1010 H 1000 V 0 H 0 Z"
         transform="translate(-655.90721,-136.625)"
         id="path362" />
    </clipPath>
    <clipPath
       clipPathUnits="userSpaceOnUse"
       id="clipPath368">
      <path
         d="M 0,1010 H 1000 V 0 H 0 Z"
         transform="translate(-678.88672,-120.58693)"
         id="path368" />
    </clipPath>
    <clipPath
       clipPathUnits="userSpaceOnUse"
       id="clipPath372">
      <path
         d="M 0,1010 H 1000 V 0 H 0 Z"
         transform="translate(-626.29301,-113.96878)"
         id="path372" />
    </clipPath>
    <clipPath
       clipPathUnits="userSpaceOnUse"
       id="clipPath374">
      <path
         d="M 0,1010 H 1000 V 0 H 0 Z"
         transform="translate(-723.21192,-108.60643)"
         id="path374" />
    </clipPath>
    <clipPath
       clipPathUnits="userSpaceOnUse"
       id="clipPath380">
      <path
         d="M 0,1010 H 1000 V 0 H 0 Z"
         transform="translate(-633.13672,-88.452127)"
         id="path380" />
    </clipPath>
  </defs>
  <g
     inkscape:label="Layer 1"
     inkscape:groupmode="layer"
     id="layer1"
     transform="translate(-1.5236905,-0.44629255)">
    <path
       id="path9"
       d="M 0,0 C 3.795,24.242 16.278,47.512 36.276,62.399 34.613,48.928 31.984,35.522 31.19,21.929 30.464,14.915 29.91,7.665 31.086,0.651 c 1.395,-14.293 5.199,-29.699 16.546,-39.507 10.248,-7.826 23.678,-8.081 35.818,-10.724 13.689,-1.784 27.932,-8.043 34.995,-20.324 7.284,-10.064 8.948,-23.809 3.557,-35.109 -0.708,4.258 -0.144,8.61 -1.243,12.763 -1.606,8.109 -5.296,16.096 -11.595,21.666 -5.468,4.276 -11.939,6.947 -18.563,8.893 -17.561,3.643 -35.675,3.445 -53.206,7.221 -7.839,2.577 -15.831,5.523 -22.005,11.149 C 2.982,-32.853 -1.004,-15.501 0,0"
       style="fill:#fa5f00;fill-opacity:1;fill-rule:nonzero;stroke:none"
       transform="matrix(0.35277776,0,0,-0.35277776,4.2349605,22.459272)"
       clip-path="url(#clipPath10)" />
    <path
       id="path35"
       d="m 0,0 c -0.182,1.104 -0.028,4.494 0.937,1.822 2.83,-10.223 9.511,-19.276 18.133,-25.498 11.452,-7.901 25.409,-11.47 39.241,-12.253 l -0.01,-0.831 c -2.639,0.491 -7.313,-3.152 1.912,-1.019 6.089,0.378 12.435,-0.897 18.42,0.661 l 0.832,0.188 c 11.547,0.227 23.648,-2.841 33.16,-9.534 6.433,-5.504 10.381,-13.49 11.241,-21.835 3.528,-7.816 -1.405,-4.106 -1.673,-1.662 -4.951,10.753 -15.83,18.211 -27.568,19.882 -19.194,1.746 -36.602,-9.016 -55.414,-10.366 -2.925,0.094 -5.735,0.028 -8.612,0.009 -9.167,0.425 -17.627,6.335 -21.786,14.369 C 3.288,-36.41 0.966,-25.139 0.02,-14.169 -0.02,-9.421 0.067,-4.72 0,0"
       style="fill:#fa5f00;fill-opacity:1;fill-rule:nonzero;stroke:none"
       transform="matrix(0.35277776,0,0,-0.35277776,1.8506105,31.790993)"
       clip-path="url(#clipPath36)" />
    <path
       id="path47"
       d="m 0,0 c 0.421,0.104 1.262,0.293 1.692,0.396 -11.939,-11.781 -22.549,-25.016 -30.704,-39.676 -5.448,-10.687 -11.327,-21.779 -11.576,-34.023 -0.401,0.038 -1.194,0.132 -1.596,0.18 -3.116,7.41 -4.379,15.453 -4.962,23.402 C -36.258,-29.453 -20.093,-11.696 0,0"
       style="fill:#fa5f00;fill-opacity:1;fill-rule:nonzero;stroke:none"
       transform="matrix(0.35277776,0,0,-0.35277776,34.004721,4.6091843)"
       clip-path="url(#clipPath48)" />
    <path
       id="path127"
       d="m 0,0 c 18.057,-1.076 34.001,9.686 51.618,11.338 4.465,-0.028 8.909,0.01 13.403,0 C 73.213,10.62 81.118,5.164 85.104,-1.982 80.516,-0.557 76.415,2.36 71.387,2.445 49.066,3.653 33.274,-16.161 12.293,-19.881 H 5.888 C -7.476,-18.38 -14.425,-4.729 -20.074,5.749 -13.584,3.238 -7.304,-0.415 0,0"
       style="fill:#fa5f00;fill-opacity:1;fill-rule:nonzero;stroke:none"
       transform="matrix(0.35277776,0,0,-0.35277776,12.982411,55.099488)"
       clip-path="url(#clipPath128)" />
    <path
       id="path337"
       d="m 0,0 c 0.43,0.085 1.28,0.265 1.701,0.35 -5.592,-5.608 -10.037,-12.168 -15.046,-18.277 -11.136,-16.765 -22.492,-34.164 -26.593,-54.101 -1.453,-7.146 -0.268,-14.727 3.269,-21.137 1.998,-4.673 6.711,-7.259 9.712,-11.233 -9.788,1.585 -20.141,3.002 -28.477,8.769 -0.764,0.793 -2.322,1.237 -2.208,2.521 -0.076,2.898 -0.009,5.645 -0.038,8.477 1.549,14.963 8.565,28.793 16.232,41.546 C -30.828,-26.073 -16.279,-11.753 0,0"
       style="fill:#fa5f00;fill-opacity:1;fill-rule:nonzero;stroke:none"
       transform="matrix(0.35277776,0,0,-0.35277776,42.094861,0.93256829)"
       clip-path="url(#clipPath338)" />
    <path
       id="path341"
       d="M 0,0 C 3.05,3.512 6.28,7.77 10.812,9.639 8.747,4.22 3.565,0.378 0.822,-4.805 0.335,-3.237 0.201,-1.604 0,0"
       style="fill:#fa5f00;fill-opacity:1;fill-rule:nonzero;stroke:none"
       transform="matrix(0.35277776,0,0,-0.35277776,17.295331,16.871325)"
       clip-path="url(#clipPath342)" />
    <path
       id="path361"
       d="M 0,0 C -9.225,-2.133 -4.551,1.511 -1.912,1.02 4.865,0.944 11.633,0.991 18.42,0.661 12.436,-0.896 6.089,0.378 0,0"
       style="fill:#fa5f00;fill-opacity:1;fill-rule:nonzero;stroke:none"
       transform="matrix(0.35277776,0,0,-0.35277776,23.092381,45.118691)"
       clip-path="url(#clipPath362)" />
  </g>
</svg>
